<svg xmlns="http://www.w3.org/2000/svg" version="1.1" xmlns:xlink="http://www.w3.org/1999/xlink" xmlns:svgjs="http://svgjs.dev/svgjs" width="1500" height="318" viewBox="0 0 1500 318"><g transform="matrix(1,0,0,1,-0.9090909090911055,0.7789030919890934)"><svg viewBox="0 0 396 84" data-background-color="#ffffff" preserveAspectRatio="xMidYMid meet" height="318" width="1500" xmlns="http://www.w3.org/2000/svg" xmlns:xlink="http://www.w3.org/1999/xlink"><g id="tight-bounds" transform="matrix(1,0,0,1,0.24000000000003752,-0.20574798656315352)"><svg viewBox="0 0 395.5199999999999 84.41149597312629" height="84.41149597312629" width="395.5199999999999"><g><svg viewBox="0 0 527.3057013924356 112.53707294117648" height="84.41149597312629" width="395.5199999999999"><g transform="matrix(1,0,0,1,131.78570139243558,15.553242352941183)"><svg viewBox="0 0 395.52 81.43058823529411" height="81.43058823529411" width="395.52"><g id="textblocktransform"><svg viewBox="0 0 395.52 81.43058823529411" height="81.43058823529411" width="395.52" id="textblock"><g><svg viewBox="0 0 395.52 81.43058823529411" height="81.43058823529411" width="395.52"><g transform="matrix(1,0,0,1,0,0)"><svg width="395.52" viewBox="2.86 -39.04 238.20999999999998 49.05" height="81.43058823529411" data-palette-color="#ffffff"><path d="M9.84-13.99L23.85-13.99 23.85-21Q23.85-22.44 23.3-23.72 22.75-25 21.8-25.95 20.85-26.9 19.57-27.45 18.29-28 16.85-28L16.85-28Q15.41-28 14.12-27.45 12.84-26.9 11.89-25.95 10.94-25 10.39-23.72 9.84-22.44 9.84-21L9.84-21 9.84-13.99ZM30.86-21L30.86 0 23.85 0 23.85-7.01 9.84-7.01 9.84 0 2.86 0 2.86-21Q2.86-23.9 3.96-26.45 5.05-29 6.95-30.91 8.84-32.81 11.39-33.91 13.94-35.01 16.85-35.01L16.85-35.01Q19.75-35.01 22.3-33.91 24.85-32.81 26.76-30.91 28.66-29 29.76-26.45 30.86-23.9 30.86-21L30.86-21ZM54.39 0L49.34 0Q46.92 0 44.8-0.92 42.67-1.83 41.07-3.43 39.48-5.03 38.56-7.15 37.64-9.28 37.64-11.69L37.64-11.69 37.64-19.46 34.4-19.46 34.4-26.1 37.64-26.1 37.64-36.55 44.28-36.55 44.28-26.1 54.39-26.1 54.39-19.46 44.28-19.46 44.28-11.69Q44.28-10.64 44.68-9.73 45.07-8.81 45.75-8.13 46.43-7.45 47.36-7.04 48.29-6.64 49.34-6.64L49.34-6.64 54.39-6.64 54.39 0ZM76.29 0L71.24 0Q68.82 0 66.69-0.92 64.57-1.83 62.97-3.43 61.37-5.03 60.46-7.15 59.54-9.28 59.54-11.69L59.54-11.69 59.54-19.46 56.29-19.46 56.29-26.1 59.54-26.1 59.54-36.55 66.18-36.55 66.18-26.1 76.29-26.1 76.29-19.46 66.18-19.46 66.18-11.69Q66.18-10.64 66.57-9.73 66.96-8.81 67.65-8.13 68.33-7.45 69.26-7.04 70.19-6.64 71.24-6.64L71.24-6.64 76.29-6.64 76.29 0ZM102.92-21.46L90.42-6.4Q90.81-6.27 91.2-6.24 91.59-6.2 91.98-6.2L91.98-6.2Q92.96-6.2 93.86-6.47 94.77-6.74 95.56-7.24 96.35-7.74 96.98-8.46 97.6-9.18 97.99-10.06L97.99-10.06 102.87-5.15Q101.95-3.83 100.74-2.78 99.53-1.73 98.12-1 96.72-0.27 95.17 0.11 93.62 0.49 91.98 0.49L91.98 0.49Q89.23 0.49 86.8-0.54 84.37-1.56 82.55-3.39 80.73-5.22 79.68-7.75 78.63-10.28 78.63-13.31L78.63-13.31Q78.63-16.41 79.68-18.97 80.73-21.53 82.55-23.34 84.37-25.15 86.8-26.15 89.23-27.15 91.98-27.15L91.98-27.15Q93.62-27.15 95.18-26.76 96.75-26.37 98.15-25.63 99.55-24.9 100.77-23.84 101.99-22.78 102.92-21.46L102.92-21.46ZM86.08-9.84L93.84-20.14Q93.38-20.31 92.92-20.36 92.47-20.41 91.98-20.41L91.98-20.41Q90.62-20.41 89.41-19.91 88.2-19.41 87.31-18.48 86.42-17.55 85.91-16.25 85.39-14.94 85.39-13.31L85.39-13.31Q85.39-12.94 85.43-12.48 85.47-12.01 85.55-11.54 85.64-11.06 85.76-10.62 85.88-10.18 86.08-9.84L86.08-9.84ZM112.93-14.94L112.93 0 106.26 0 106.26-26.15 107.88-26.15 110.07-23.61Q111.68-25.07 113.72-25.87 115.76-26.66 117.98-26.66L117.98-26.66Q120.38-26.66 122.5-25.74 124.62-24.83 126.21-23.23 127.8-21.63 128.71-19.49 129.63-17.36 129.63-14.94L129.63-14.94 129.63 0 122.96 0 122.96-14.94Q122.96-15.97 122.57-16.88 122.18-17.8 121.5-18.48 120.82-19.17 119.91-19.56 119.01-19.95 117.98-19.95L117.98-19.95Q116.93-19.95 116.01-19.56 115.08-19.17 114.39-18.48 113.71-17.8 113.32-16.88 112.93-15.97 112.93-14.94L112.93-14.94ZM159.63-36.55L159.63 0 158.02 0 155.43-3.59Q154.48-2.73 153.42-1.99 152.36-1.25 151.18-0.7 150.01-0.15 148.78 0.17 147.55 0.49 146.28 0.49L146.28 0.49Q143.52 0.49 141.09-0.55 138.66-1.59 136.84-3.43 135.02-5.27 133.97-7.8 132.92-10.33 132.92-13.31L132.92-13.31Q132.92-16.26 133.97-18.8 135.02-21.34 136.84-23.19 138.66-25.05 141.09-26.1 143.52-27.15 146.28-27.15L146.28-27.15Q147.16-27.15 148.1-27 149.04-26.86 149.93-26.53 150.82-26.2 151.6-25.66 152.38-25.12 152.92-24.34L152.92-24.34 152.92-36.55 159.63-36.55ZM152.92-13.31L152.92-13.31Q152.92-14.67 152.39-15.95 151.87-17.24 150.96-18.23 150.06-19.21 148.85-19.81 147.64-20.41 146.28-20.41L146.28-20.41Q144.91-20.41 143.7-19.92 142.49-19.43 141.6-18.52 140.71-17.6 140.2-16.28 139.68-14.97 139.68-13.31L139.68-13.31Q139.68-11.87 140.2-10.57 140.71-9.28 141.6-8.3 142.49-7.32 143.7-6.76 144.91-6.2 146.28-6.2L146.28-6.2Q147.64-6.2 148.85-6.8 150.06-7.4 150.96-8.39 151.87-9.38 152.39-10.66 152.92-11.94 152.92-13.31ZM172.57-33.25L172.57-33.25Q172.57-32.32 172.21-31.52 171.86-30.71 171.25-30.11 170.64-29.52 169.82-29.16 169-28.81 168.08-28.81L168.08-28.81Q167.15-28.81 166.33-29.16 165.51-29.52 164.91-30.11 164.32-30.71 163.96-31.52 163.61-32.32 163.61-33.25L163.61-33.25Q163.61-34.16 163.96-34.97 164.32-35.79 164.91-36.39 165.51-36.99 166.33-37.34 167.15-37.7 168.08-37.7L168.08-37.7Q169-37.7 169.82-37.34 170.64-36.99 171.25-36.39 171.86-35.79 172.21-34.97 172.57-34.16 172.57-33.25ZM171.42-26.15L171.42 0 164.71 0 164.71-26.15 171.42-26.15ZM194.66 0L189.61 0Q187.19 0 185.07-0.92 182.94-1.83 181.34-3.43 179.74-5.03 178.83-7.15 177.91-9.28 177.91-11.69L177.91-11.69 177.91-19.46 174.67-19.46 174.67-26.1 177.91-26.1 177.91-36.55 184.55-36.55 184.55-26.1 194.66-26.1 194.66-19.46 184.55-19.46 184.55-11.69Q184.55-10.64 184.94-9.73 185.33-8.81 186.02-8.13 186.7-7.45 187.63-7.04 188.56-6.64 189.61-6.64L189.61-6.64 194.66-6.64 194.66 0ZM206.86-19.51L206.86 0 200.2 0 200.2-19.51 196.95-19.51 196.95-26.15 200.2-26.15 200.2-27.39Q200.2-29.81 201.12-31.93 202.03-34.06 203.63-35.63 205.23-37.21 207.35-38.12 209.48-39.04 211.89-39.04L211.89-39.04 216.9-39.04 216.9-32.4 211.89-32.4Q210.82-32.4 209.9-32.02 208.99-31.64 208.32-30.97 207.65-30.3 207.26-29.38 206.86-28.47 206.86-27.39L206.86-27.39 206.86-26.15 215.04-26.15 215.04-19.51 206.86-19.51ZM227.71 10.01L224.29 9.96 224.29 3.25 228 3.3Q228.98 3.3 229.88 2.98 230.79 2.66 231.56 2.1 232.33 1.54 232.91 0.77 233.5 0 233.86-0.9L233.86-0.9Q232.77-0.44 231.63 0.02 230.5 0.49 229.35 0.49L229.35 0.49Q226.93 0.49 224.81-0.37 222.68-1.22 221.08-2.8 219.48-4.37 218.57-6.63 217.65-8.89 217.65-11.69L217.65-11.69 217.65-26.15 224.29-26.15 224.29-11.69Q224.29-10.3 224.7-9.27 225.1-8.23 225.78-7.53 226.47-6.84 227.38-6.49 228.3-6.15 229.35-6.15L229.35-6.15Q230.37-6.15 231.29-6.63 232.2-7.1 232.89-7.89 233.57-8.67 233.96-9.66 234.35-10.64 234.35-11.69L234.35-11.69 234.35-26.15 241.07-26.15 241.07-3.3Q241.04-0.54 239.99 1.88 238.94 4.3 237.12 6.1 235.3 7.91 232.89 8.96 230.47 10.01 227.71 10.01L227.71 10.01Z" opacity="1" transform="matrix(1,0,0,1,0,0)" fill="#ffffff" class="wordmark-text-0" data-fill-palette-color="primary" id="text-0"></path></svg></g></svg></g></svg></g></svg></g><g><svg viewBox="0 0 112.5618938442003 112.53707294117648" height="112.53707294117648" width="112.5618938442003"><g><svg xmlns="http://www.w3.org/2000/svg" xmlns:xlink="http://www.w3.org/1999/xlink" version="1.1" x="0" y="0" viewBox="5.000195955104765 5 90.01985018104489 90" enable-background="new 0 0 100 100" xml:space="preserve" height="112.53707294117648" width="112.5618938442003" class="icon-icon-0" data-fill-palette-color="accent" id="icon-0"><g fill="#ffffff" data-fill-palette-color="accent"><path d="M94.994 76.584l-9.479-45.503 0.688-2.723c0.024-0.1 0.037-0.203 0.037-0.307V13.641c0-0.69-0.559-1.25-1.251-1.25H15.028c-0.69 0-1.251 0.56-1.251 1.25v14.411c0 0.104 0.013 0.207 0.039 0.307l0.688 2.723L5.026 76.584c-0.076 0.367 0.018 0.752 0.254 1.045 0.238 0.291 0.594 0.461 0.97 0.461h8.286v8.268c0 0.693 0.561 1.252 1.251 1.252h68.445c0.691 0 1.25-0.559 1.25-1.252V78.09h8.285c0.377 0 0.733-0.17 0.973-0.461C94.978 77.336 95.07 76.951 94.994 76.584zM84.232 75.588H15.787 7.79l9.015-43.282h66.411l9.016 43.282H84.232zM83.02 30.748c-0.004 0.019-0.007 0.038-0.011 0.057H17.011c-0.004-0.019-0.006-0.038-0.011-0.057l-0.491-1.945h67.002L83.02 30.748zM83.74 14.892v12.41H16.279v-12.41H83.74zM17.038 85.107v-8.02h65.943v8.02H17.038z" fill="#ffffff" data-fill-palette-color="accent"></path><path d="M79.688 64.641h-8.314l-1.034-9.943h6.965c0.414 0 0.751-0.336 0.751-0.751s-0.337-0.751-0.751-0.751h-7.123l-1.034-9.945h5.773c0.414 0 0.75-0.335 0.75-0.75 0-0.415-0.336-0.75-0.75-0.75h-5.931l-0.406-3.905c-0.043-0.413-0.413-0.712-0.824-0.669-0.412 0.043-0.711 0.413-0.669 0.824l0.392 3.75H50.76v-3.828c0-0.415-0.336-0.751-0.75-0.751-0.414 0-0.75 0.336-0.75 0.751v3.828H32.539l0.391-3.75c0.043-0.412-0.256-0.78-0.668-0.824-0.414-0.043-0.782 0.257-0.825 0.669L31.03 41.75H25.1c-0.415 0-0.75 0.336-0.75 0.75 0 0.415 0.336 0.75 0.75 0.75h5.773l-1.036 9.945h-7.121c-0.414 0-0.75 0.336-0.75 0.751s0.336 0.751 0.75 0.751h6.966l-1.037 9.943h-8.313c-0.414 0-0.75 0.336-0.75 0.752 0 0.414 0.336 0.75 0.75 0.75h8.158l-0.391 3.75c-0.043 0.412 0.256 0.781 0.669 0.824 0.026 0.004 0.052 0.004 0.079 0.004 0.379 0 0.706-0.285 0.746-0.672l0.407-3.906h19.26v3.826c0 0.416 0.336 0.752 0.75 0.752 0.415 0 0.75-0.336 0.75-0.752v-3.826h19.261l0.407 3.906c0.04 0.387 0.365 0.672 0.745 0.672 0.026 0 0.051 0 0.079-0.004 0.412-0.043 0.712-0.412 0.669-0.824l-0.391-3.75h8.157c0.415 0 0.751-0.336 0.751-0.75C80.438 64.977 80.103 64.641 79.688 64.641zM68.88 55.185l0.922 8.854-8.239-4.561L68.88 55.185zM60.037 58.635l-7.12-3.938h13.826L60.037 58.635zM58.531 59.52L50.76 64.08v-8.86L58.531 59.52zM60.058 60.361l7.732 4.279h-15.02L60.058 60.361zM67.637 43.25l1.035 9.945H50.76V43.25H67.637zM32.383 43.25h16.876v9.945H31.347L32.383 43.25zM30.155 64.641l1.037-9.943h18.068v9.943H30.155z" fill="#ffffff" data-fill-palette-color="accent"></path></g></svg></g></svg></g></svg></g><defs></defs></svg><rect width="395.5199999999999" height="84.41149597312629" fill="none" stroke="none" visibility="hidden"></rect></g></svg></g></svg>